<svg width="200" height="200" viewBox="0 0 200 200" fill="none" xmlns="http://www.w3.org/2000/svg">
  <rect width="200" height="200" rx="25" fill="#321FDB"/>
  <path d="M66.3733 148.373C55.528 148.373 46.5293 144.88 39.376 137.893C32.296 130.907 28.756 121.227 28.756 108.853V91.1467C28.756 78.7733 32.296 69.0933 39.376 62.1067C46.5293 55.12 55.528 51.6267 66.3733 51.6267C77.2187 51.6267 85.9573 55.12 92.4893 62.1067C99.096 69.0933 102.399 78.7733 102.399 91.1467H85.7013C85.7013 83.7333 83.8267 77.96 80.0773 73.8267C76.4027 69.6187 72.0467 67.5147 67.0093 67.5147C61.9733 67.5147 57.7893 69.6187 54.4573 73.8267C51.1253 77.96 49.4593 83.7333 49.4593 91.1467V108.853C49.4593 116.267 51.1253 122.067 54.4573 126.28C57.7893 130.413 61.9733 132.48 67.0093 132.48C72.0467 132.48 76.4027 130.413 80.0773 126.28C83.8267 122.067 85.7013 116.267 85.7013 108.853H102.399C102.399 121.227 99.096 130.907 92.4893 137.893C85.9573 144.88 77.2187 148.373 66.3733 148.373Z" fill="white"/>
  <rect x="110" y="51.6267" width="20" height="96.7467" rx="5" fill="white"/>
  <rect x="129" y="69" width="20" height="60" rx="5" fill="white"/>
  <rect x="147" y="91" width="20" height="15" rx="7.5" fill="white"/>
</svg> 